# xmcd CD database file
# Copyright (C) 1995-1998 Ti Kan
#
# Track frame offsets:
#	150
#	15225
#	40075
#	57017
#	72342
#	92815
#	108007
#	123100
#	143710
#	158815
#	169237
#	197385
#	214337
#
# Disc length: 3104 seconds
#
# Revision: 1
# Processed by: cddbd v1.4b41PL1 Copyright (c) Steve Scherf et al.
# Submitted via: CDex 1.30
#
DISCID=a20c1e0d
DTITLE=Shawn Mullins - Soul's Core
DYEAR=1998
DGENRE=Country
TTITLE0=Anchored In You
TTITLE1=Lullaby
TTITLE2=The Gulf Of Mexico
TTITLE3=September In Seattle
TTITLE4=Twin Rocks, Oregon
TTITLE5=And On A Rainy Night
TTITLE6=Tannin Bed Song
TTITLE7=Soul Child
TTITLE8=Ballad Of Billy Jo McKay
TTITLE9=Patrick's Song
TTITLE10=Sunday Mornin' Comin' Down
TTITLE11=You Mean Everything To Me
TTITLE12=Shimmer
EXTD=\nYEAR: 1998  ID3G:   2
EXTT0=
EXTT1=
EXTT2=
EXTT3=
EXTT4=
EXTT5=
EXTT6=
EXTT7=
EXTT8=
EXTT9=
EXTT10=
EXTT11=
EXTT12=
PLAYORDER=
